<svg height="766" width="720" xmlns="http://www.w3.org/2000/svg">
<rect height="766" fill="#555" width="720"></rect>
<text fill="#7f7" font-family="Courier New" font-size="12" xml:space="preserve">
<tspan x="10" y="26">5 megabytes installed</tspan>
<tspan x="10" y="42"></tspan>
<tspan x="10" y="58">node_modules</tspan>
<tspan x="10" y="74">└─┬ html-loader@0.4.5 </tspan>
<tspan x="10" y="90">  ├─┬ es6-templates@0.2.3 </tspan>
<tspan x="10" y="106">  │ ├─┬ recast@0.11.23 </tspan>
<tspan x="10" y="122">  │ │ ├── ast-types@0.9.6 </tspan>
<tspan x="10" y="138">  │ │ ├── esprima@3.1.3 </tspan>
<tspan x="10" y="154">  │ │ ├── private@0.1.7 </tspan>
<tspan x="10" y="170">  │ │ └── source-map@0.5.6 </tspan>
<tspan x="10" y="186">  │ └── through@2.3.8 </tspan>
<tspan x="10" y="202">  ├── fastparse@1.1.1 </tspan>
<tspan x="10" y="218">  ├─┬ html-minifier@3.4.3 </tspan>
<tspan x="10" y="234">  │ ├─┬ camel-case@3.0.0 </tspan>
<tspan x="10" y="250">  │ │ ├─┬ no-case@2.3.1 </tspan>
<tspan x="10" y="266">  │ │ │ └── lower-case@1.1.4 </tspan>
<tspan x="10" y="282">  │ │ └── upper-case@1.1.3 </tspan>
<tspan x="10" y="298">  │ ├── clean-css@4.0.12 </tspan>
<tspan x="10" y="314">  │ ├─┬ commander@2.9.0 </tspan>
<tspan x="10" y="330">  │ │ └── graceful-readlink@1.0.1 </tspan>
<tspan x="10" y="346">  │ ├── he@1.1.1 </tspan>
<tspan x="10" y="362">  │ ├─┬ ncname@1.0.0 </tspan>
<tspan x="10" y="378">  │ │ └── xml-char-classes@1.0.0 </tspan>
<tspan x="10" y="394">  │ ├── param-case@2.1.1 </tspan>
<tspan x="10" y="410">  │ ├── relateurl@0.2.7 </tspan>
<tspan x="10" y="426">  │ └─┬ uglify-js@2.8.22 </tspan>
<tspan x="10" y="442">  │   ├── uglify-to-browserify@1.0.2 </tspan>
<tspan x="10" y="458">  │   └─┬ yargs@3.10.0 </tspan>
<tspan x="10" y="474">  │     ├── camelcase@1.2.1 </tspan>
<tspan x="10" y="490">  │     ├─┬ cliui@2.1.0 </tspan>
<tspan x="10" y="506">  │     │ ├─┬ center-align@0.1.3 </tspan>
<tspan x="10" y="522">  │     │ │ ├─┬ align-text@0.1.4 </tspan>
<tspan x="10" y="538">  │     │ │ │ ├─┬ kind-of@3.1.0 </tspan>
<tspan x="10" y="554">  │     │ │ │ │ └── is-buffer@1.1.5 </tspan>
<tspan x="10" y="570">  │     │ │ │ ├── longest@1.0.1 </tspan>
<tspan x="10" y="586">  │     │ │ │ └── repeat-string@1.6.1 </tspan>
<tspan x="10" y="602">  │     │ │ └── lazy-cache@1.0.4 </tspan>
<tspan x="10" y="618">  │     │ ├── right-align@0.1.3 </tspan>
<tspan x="10" y="634">  │     │ └── wordwrap@0.0.2 </tspan>
<tspan x="10" y="650">  │     ├── decamelize@1.2.0 </tspan>
<tspan x="10" y="666">  │     └── window-size@0.1.0 </tspan>
<tspan x="10" y="682">  ├─┬ loader-utils@1.1.0 </tspan>
<tspan x="10" y="698">  │ ├── big.js@3.1.3 </tspan>
<tspan x="10" y="714">  │ ├── emojis-list@2.1.0 </tspan>
<tspan x="10" y="730">  │ └── json5@0.5.1 </tspan>
<tspan x="10" y="746">  └── object-assign@4.1.1</tspan>
</text>
</svg>
